<svg width="198" height="100" viewBox="0 0 198 100" fill="none" xmlns="http://www.w3.org/2000/svg">
<path d="M22.5 0.5H78L55.5 82H0.5L22.5 0.5Z" fill="#009C22"/>
<path d="M82.5 0.5H138L115.5 82H60.5L82.5 0.5Z" fill="#009C22"/>
<path d="M142.5 0.5H198L175.5 82H120.5L142.5 0.5Z" fill="#009C22"/>
<path d="M35.68 77.66C31.28 77.66 27.52 76.72 24.4 74.84C21.32 72.92 18.98 70.24 17.38 66.8C15.78 63.36 14.98 59.32 14.98 54.68C14.98 50.2 15.92 46.24 17.8 42.8C19.68 39.36 22.26 36.7 25.54 34.82C28.82 32.9 32.5 31.94 36.58 31.94C39.66 31.94 43.36 32.42 47.68 33.38L49.66 33.74L49.06 44.54H45.04L43.54 36.92C42.98 36.44 42 36.04 40.6 35.72C39.24 35.36 37.56 35.18 35.56 35.18C33 35.18 30.72 35.92 28.72 37.4C26.72 38.84 25.14 40.98 23.98 43.82C22.86 46.66 22.3 50.06 22.3 54.02C22.3 57.78 22.8 61.2 23.8 64.28C24.8 67.36 26.32 69.82 28.36 71.66C30.4 73.46 32.92 74.36 35.92 74.36C38.04 74.36 39.66 74.18 40.78 73.82C41.94 73.46 42.92 72.94 43.72 72.26L46.24 66.38L50.02 66.86L48.58 75.38C47.74 75.42 46.5 75.7 44.86 76.22C43.42 76.66 42.02 77 40.66 77.24C39.34 77.52 37.68 77.66 35.68 77.66Z" fill="white"/>
<path d="M154.4 77.66C152.32 77.66 150.46 77.48 148.82 77.12C147.18 76.76 145.38 76.28 143.42 75.68C142.22 75.24 141.32 75 140.72 74.96L141.2 64.1H145.04L146.06 71.9C146.74 72.54 147.84 73.12 149.36 73.64C150.92 74.12 152.62 74.36 154.46 74.36C157.5 74.36 159.8 73.68 161.36 72.32C162.96 70.96 163.76 69.08 163.76 66.68C163.76 65.12 163.32 63.78 162.44 62.66C161.6 61.54 160.46 60.58 159.02 59.78C157.62 58.98 155.68 58.04 153.2 56.96C150.96 55.96 149 54.94 147.32 53.9C145.68 52.86 144.24 51.48 143 49.76C141.8 48 141.2 45.9 141.2 43.46C141.2 41.26 141.78 39.3 142.94 37.58C144.14 35.82 145.84 34.44 148.04 33.44C150.28 32.44 152.88 31.94 155.84 31.94C157.68 31.94 159.3 32.08 160.7 32.36C162.14 32.64 163.76 33.02 165.56 33.5C166.36 33.78 167.04 33.96 167.6 34.04L167.24 44.12H163.58L162.38 36.74C161.98 36.34 161.14 35.96 159.86 35.6C158.62 35.24 157.26 35.06 155.78 35.06C153.02 35.06 150.92 35.64 149.48 36.8C148.08 37.96 147.38 39.64 147.38 41.84C147.38 43.44 147.8 44.78 148.64 45.86C149.52 46.94 150.6 47.86 151.88 48.62C153.16 49.38 155.2 50.42 158 51.74C160.6 52.98 162.72 54.1 164.36 55.1C166 56.1 167.4 57.42 168.56 59.06C169.76 60.66 170.36 62.58 170.36 64.82C170.36 66.94 169.76 68.98 168.56 70.94C167.4 72.9 165.6 74.52 163.16 75.8C160.76 77.04 157.84 77.66 154.4 77.66Z" fill="white"/>
<path d="M116.34 55.88L111.48 56.54C111.52 59.26 111.12 61.84 110.28 64.28C109.44 66.72 108.28 68.72 106.8 70.28C108.16 71.52 109.42 72.44 110.58 73.04C111.74 73.64 113.08 73.98 114.6 74.06V76.7C114.24 76.9 113.58 77.06 112.62 77.18C111.7 77.3 110.92 77.36 110.28 77.36C108.88 77.36 107.6 77.1 106.44 76.58C105.32 76.06 104.02 75.18 102.54 73.94C101.02 75.18 99.28 76.1 97.32 76.7C95.36 77.26 93.42 77.54 91.5 77.54C86.62 77.54 82.74 76.5 79.86 74.42C77.02 72.34 75.6 69.46 75.6 65.78C75.6 63.22 76.42 61.02 78.06 59.18C79.74 57.34 81.92 55.86 84.6 54.74C81.12 50.34 79.38 46.22 79.38 42.38C79.38 40.5 79.9 38.76 80.94 37.16C81.98 35.56 83.4 34.28 85.2 33.32C87.04 32.36 89.08 31.88 91.32 31.88C93.64 31.88 95.6 32.28 97.2 33.08C98.84 33.88 100.06 34.92 100.86 36.2C101.66 37.48 102.06 38.8 102.06 40.16C102.06 42.44 101.64 44.38 100.8 45.98C99.96 47.58 98.86 48.94 97.5 50.06C96.14 51.18 94.22 52.54 91.74 54.14C93.14 55.82 94.96 57.92 97.2 60.44C99.48 62.96 101.34 64.96 102.78 66.44L104.28 67.88C105.28 66.6 106 65.12 106.44 63.44C106.88 61.72 107.1 59.98 107.1 58.22C107.1 57.46 107.08 56.9 107.04 56.54L102.18 55.88V52.58H116.34V55.88ZM85.32 41.6C85.32 43.64 85.74 45.48 86.58 47.12C87.46 48.72 88.58 50.3 89.94 51.86C92.42 49.86 94.16 48.06 95.16 46.46C96.16 44.86 96.66 42.86 96.66 40.46C96.66 38.98 96.26 37.64 95.46 36.44C94.66 35.2 93.26 34.58 91.26 34.58C89.58 34.58 88.16 35.24 87 36.56C85.88 37.88 85.32 39.56 85.32 41.6ZM91.98 74.18C93.38 74.18 94.78 73.98 96.18 73.58C97.58 73.14 98.82 72.52 99.9 71.72C98.3 70.28 96.54 68.52 94.62 66.44C92.74 64.32 90.38 61.6 87.54 58.28L86.52 57.08C83.12 59.72 81.42 62.48 81.42 65.36C81.42 67.92 82.34 70.04 84.18 71.72C86.02 73.36 88.62 74.18 91.98 74.18Z" fill="white"/>
<line y1="84.5" x2="176" y2="84.5" stroke="#009C22"/>
<line y1="99.5" x2="176" y2="99.5" stroke="#009C22"/>
<path d="M15.548 97.132C14.188 97.132 13.148 96.728 12.428 95.92C11.708 95.104 11.348 93.992 11.348 92.584C11.348 91.656 11.536 90.848 11.912 90.16C12.296 89.464 12.82 88.928 13.484 88.552C14.148 88.176 14.9 87.988 15.74 87.988C16.092 87.988 16.432 88.012 16.76 88.06C17.088 88.1 17.476 88.156 17.924 88.228C18.26 88.284 18.444 88.312 18.476 88.312L18.344 90.784H17.24L16.868 89.068C16.78 88.98 16.628 88.908 16.412 88.852C16.196 88.796 15.92 88.768 15.584 88.768C14.904 88.768 14.356 89.084 13.94 89.716C13.532 90.34 13.328 91.248 13.328 92.44C13.328 93.592 13.524 94.532 13.916 95.26C14.308 95.988 14.88 96.352 15.632 96.352C15.992 96.352 16.268 96.32 16.46 96.256C16.66 96.184 16.828 96.084 16.964 95.956L17.492 94.72L18.5 94.816L18.26 96.676C18.092 96.692 17.924 96.724 17.756 96.772C17.596 96.812 17.496 96.836 17.456 96.844C17.136 96.932 16.836 97 16.556 97.048C16.284 97.104 15.948 97.132 15.548 97.132ZM23.1584 97.132C21.8544 97.132 20.8784 96.724 20.2304 95.908C19.5824 95.092 19.2584 93.98 19.2584 92.572C19.2584 91.652 19.4264 90.844 19.7624 90.148C20.1064 89.452 20.5864 88.916 21.2024 88.54C21.8184 88.164 22.5264 87.976 23.3264 87.976C24.6464 87.976 25.6344 88.368 26.2904 89.152C26.9544 89.928 27.2864 91.016 27.2864 92.416C27.2864 93.344 27.1104 94.168 26.7584 94.888C26.4144 95.6 25.9304 96.152 25.3064 96.544C24.6824 96.936 23.9664 97.132 23.1584 97.132ZM23.2784 88.708C22.6224 88.708 22.1104 89.032 21.7424 89.68C21.3744 90.328 21.1904 91.288 21.1904 92.56C21.1904 93.816 21.3664 94.772 21.7184 95.428C22.0784 96.076 22.5904 96.4 23.2544 96.4C23.9024 96.4 24.4104 96.06 24.7784 95.38C25.1464 94.692 25.3304 93.704 25.3304 92.416C25.3304 91.168 25.1544 90.24 24.8024 89.632C24.4504 89.016 23.9424 88.708 23.2784 88.708ZM29.0569 88.984L28.1089 88.828V88.084H30.8329L34.4089 93.484L35.0809 94.852V88.984L34.0489 88.828V88.084H37.0249V88.828L36.1009 88.984V97H34.6489L30.9169 91.324L30.0769 89.74V96.16L31.2889 96.28V97H28.1089V96.28L29.0569 96.16V88.984ZM40.6457 88.876L38.9297 88.936L38.4617 91.552H37.4537L37.6577 88.084H45.3977L45.5417 91.552H44.5937L44.1257 88.936L42.4337 88.876V96.16L44.1137 96.28V97H39.1097V96.28L40.6457 96.16V88.876ZM46.2727 96.28L47.2207 96.16V88.984L46.3207 88.816V88.084H48.0607C48.2127 88.084 48.3807 88.08 48.5647 88.072C48.7487 88.064 48.8887 88.056 48.9847 88.048C49.4007 88.016 49.7447 88 50.0167 88C50.8407 88 51.5007 88.084 51.9967 88.252C52.4927 88.42 52.8527 88.676 53.0767 89.02C53.3007 89.364 53.4127 89.816 53.4127 90.376C53.4127 90.928 53.2647 91.44 52.9687 91.912C52.6727 92.384 52.2447 92.708 51.6847 92.884C52.0047 93.02 52.2887 93.268 52.5367 93.628C52.7847 93.988 53.0487 94.456 53.3287 95.032C53.5287 95.424 53.6807 95.708 53.7847 95.884C53.8967 96.052 54.0047 96.148 54.1087 96.172L54.5047 96.292V97H52.4647C52.3367 97 52.2007 96.872 52.0567 96.616C51.9207 96.352 51.7407 95.94 51.5167 95.38C51.2527 94.724 51.0247 94.212 50.8327 93.844C50.6407 93.476 50.4367 93.248 50.2207 93.16H48.9847V96.16L50.0887 96.28V97H46.2727V96.28ZM50.0887 92.428C50.5447 92.428 50.9007 92.264 51.1567 91.936C51.4127 91.608 51.5407 91.116 51.5407 90.46C51.5407 89.876 51.4127 89.444 51.1567 89.164C50.9087 88.884 50.4767 88.744 49.8607 88.744C49.6367 88.744 49.4447 88.756 49.2847 88.78C49.1327 88.796 49.0327 88.804 48.9847 88.804V92.404C49.0807 92.42 49.3127 92.428 49.6807 92.428H50.0887ZM58.7131 97.132C57.4091 97.132 56.4331 96.724 55.7851 95.908C55.1371 95.092 54.8131 93.98 54.8131 92.572C54.8131 91.652 54.9811 90.844 55.3171 90.148C55.6611 89.452 56.1411 88.916 56.7571 88.54C57.3731 88.164 58.0811 87.976 58.8811 87.976C60.2011 87.976 61.1891 88.368 61.8451 89.152C62.5091 89.928 62.8411 91.016 62.8411 92.416C62.8411 93.344 62.6651 94.168 62.3131 94.888C61.9691 95.6 61.4851 96.152 60.8611 96.544C60.2371 96.936 59.5211 97.132 58.7131 97.132ZM58.8331 88.708C58.1771 88.708 57.6651 89.032 57.2971 89.68C56.9291 90.328 56.7451 91.288 56.7451 92.56C56.7451 93.816 56.9211 94.772 57.2731 95.428C57.6331 96.076 58.1451 96.4 58.8091 96.4C59.4571 96.4 59.9651 96.06 60.3331 95.38C60.7011 94.692 60.8851 93.704 60.8851 92.416C60.8851 91.168 60.7091 90.24 60.3571 89.632C60.0051 89.016 59.4971 88.708 58.8331 88.708ZM64.6116 88.984L63.6876 88.828V88.084H67.5276V88.828L66.3756 88.984V96.148L68.9436 96.04L69.6996 93.796L70.6716 93.928L70.2996 97H63.6636V96.28L64.6116 96.16V88.984ZM72.2519 88.984L71.2919 88.828V88.084H77.6879L77.8439 90.1H77.0039L76.6079 88.912L74.0159 88.804V92.032L75.6839 91.996L75.8759 91.012H76.6439V93.916H75.8759L75.6839 92.884L74.0159 92.848V96.232L76.9199 96.088L77.6159 94.552L78.5159 94.804L78.2039 97H71.3039V96.28L72.2519 96.16V88.984ZM82.2632 97.132C81.8312 97.132 81.4432 97.096 81.0992 97.024C80.7552 96.952 80.3712 96.856 79.9472 96.736C79.6672 96.656 79.4792 96.612 79.3832 96.604L79.4912 94.384H80.4632L80.7272 95.932C80.8312 96.044 81.0152 96.144 81.2792 96.232C81.5512 96.32 81.8592 96.364 82.2032 96.364C82.7392 96.364 83.1392 96.248 83.4032 96.016C83.6752 95.776 83.8112 95.444 83.8112 95.02C83.8112 94.74 83.7312 94.5 83.5712 94.3C83.4112 94.092 83.1912 93.908 82.9112 93.748C82.6312 93.58 82.2472 93.388 81.7592 93.172C81.0952 92.868 80.5432 92.508 80.1032 92.092C79.6712 91.668 79.4552 91.096 79.4552 90.376C79.4552 89.928 79.5712 89.524 79.8032 89.164C80.0352 88.796 80.3792 88.508 80.8352 88.3C81.2992 88.084 81.8632 87.976 82.5272 87.976C82.9192 87.976 83.2632 88.004 83.5592 88.06C83.8632 88.116 84.1912 88.192 84.5432 88.288C84.7512 88.344 84.9072 88.38 85.0112 88.396L84.9392 90.496H83.9792L83.7272 89.02C83.6552 88.948 83.5112 88.88 83.2952 88.816C83.0792 88.744 82.8392 88.708 82.5752 88.708C82.0952 88.708 81.7312 88.82 81.4832 89.044C81.2432 89.26 81.1232 89.552 81.1232 89.92C81.1232 90.216 81.2112 90.472 81.3872 90.688C81.5712 90.904 81.7912 91.088 82.0472 91.24C82.3032 91.384 82.7072 91.592 83.2592 91.864C83.7072 92.08 84.0912 92.292 84.4112 92.5C84.7312 92.708 85.0072 92.98 85.2392 93.316C85.4712 93.644 85.5872 94.032 85.5872 94.48C85.5872 94.92 85.4752 95.34 85.2512 95.74C85.0352 96.14 84.6752 96.472 84.1712 96.736C83.6752 97 83.0392 97.132 82.2632 97.132ZM91.8373 93.46L89.2693 88.984L88.5853 88.828V88.084H92.1133V88.828L91.2613 88.984L92.7613 91.924L93.0973 92.752L93.4453 91.924L94.8253 88.984L93.8893 88.828V88.084H96.8173V88.828L96.0733 88.972L93.6853 93.448V96.16L94.9933 96.28V97H90.5653V96.28L91.8373 96.16V93.46ZM103.005 97.132C102.573 97.132 102.185 97.096 101.841 97.024C101.497 96.952 101.113 96.856 100.689 96.736C100.409 96.656 100.221 96.612 100.125 96.604L100.233 94.384H101.205L101.469 95.932C101.573 96.044 101.757 96.144 102.021 96.232C102.293 96.32 102.601 96.364 102.945 96.364C103.481 96.364 103.881 96.248 104.145 96.016C104.417 95.776 104.553 95.444 104.553 95.02C104.553 94.74 104.473 94.5 104.313 94.3C104.153 94.092 103.933 93.908 103.653 93.748C103.373 93.58 102.989 93.388 102.501 93.172C101.837 92.868 101.285 92.508 100.845 92.092C100.413 91.668 100.197 91.096 100.197 90.376C100.197 89.928 100.313 89.524 100.545 89.164C100.777 88.796 101.121 88.508 101.577 88.3C102.041 88.084 102.605 87.976 103.269 87.976C103.661 87.976 104.005 88.004 104.301 88.06C104.605 88.116 104.933 88.192 105.285 88.288C105.493 88.344 105.649 88.38 105.753 88.396L105.681 90.496H104.721L104.469 89.02C104.397 88.948 104.253 88.88 104.037 88.816C103.821 88.744 103.581 88.708 103.317 88.708C102.837 88.708 102.473 88.82 102.225 89.044C101.985 89.26 101.865 89.552 101.865 89.92C101.865 90.216 101.953 90.472 102.129 90.688C102.313 90.904 102.533 91.088 102.789 91.24C103.045 91.384 103.449 91.592 104.001 91.864C104.449 92.08 104.833 92.292 105.153 92.5C105.473 92.708 105.749 92.98 105.981 93.316C106.213 93.644 106.329 94.032 106.329 94.48C106.329 94.92 106.217 95.34 105.993 95.74C105.777 96.14 105.417 96.472 104.913 96.736C104.417 97 103.781 97.132 103.005 97.132ZM108.244 88.984L107.224 88.828V88.084H111.064V88.828L110.008 88.984V96.16L111.064 96.292V97H107.224V96.28L108.244 96.16V88.984ZM115.169 97.132C114.737 97.132 114.349 97.096 114.005 97.024C113.661 96.952 113.277 96.856 112.853 96.736C112.573 96.656 112.385 96.612 112.289 96.604L112.397 94.384H113.369L113.633 95.932C113.737 96.044 113.921 96.144 114.185 96.232C114.457 96.32 114.765 96.364 115.109 96.364C115.645 96.364 116.045 96.248 116.309 96.016C116.581 95.776 116.717 95.444 116.717 95.02C116.717 94.74 116.637 94.5 116.477 94.3C116.317 94.092 116.097 93.908 115.817 93.748C115.537 93.58 115.153 93.388 114.665 93.172C114.001 92.868 113.449 92.508 113.009 92.092C112.577 91.668 112.361 91.096 112.361 90.376C112.361 89.928 112.477 89.524 112.709 89.164C112.941 88.796 113.285 88.508 113.741 88.3C114.205 88.084 114.769 87.976 115.433 87.976C115.825 87.976 116.169 88.004 116.465 88.06C116.769 88.116 117.097 88.192 117.449 88.288C117.657 88.344 117.813 88.38 117.917 88.396L117.845 90.496H116.885L116.633 89.02C116.561 88.948 116.417 88.88 116.201 88.816C115.985 88.744 115.745 88.708 115.481 88.708C115.001 88.708 114.637 88.82 114.389 89.044C114.149 89.26 114.029 89.552 114.029 89.92C114.029 90.216 114.117 90.472 114.293 90.688C114.477 90.904 114.697 91.088 114.953 91.24C115.209 91.384 115.613 91.592 116.165 91.864C116.613 92.08 116.997 92.292 117.317 92.5C117.637 92.708 117.913 92.98 118.145 93.316C118.377 93.644 118.493 94.032 118.493 94.48C118.493 94.92 118.381 95.34 118.157 95.74C117.941 96.14 117.581 96.472 117.077 96.736C116.581 97 115.945 97.132 115.169 97.132ZM122.22 88.876L120.504 88.936L120.036 91.552H119.028L119.232 88.084H126.972L127.116 91.552H126.168L125.7 88.936L124.008 88.876V96.16L125.688 96.28V97H120.684V96.28L122.22 96.16V88.876ZM128.795 88.984L127.835 88.828V88.084H134.231L134.387 90.1H133.547L133.151 88.912L130.559 88.804V92.032L132.227 91.996L132.419 91.012H133.187V93.916H132.419L132.227 92.884L130.559 92.848V96.232L133.463 96.088L134.159 94.552L135.059 94.804L134.747 97H127.847V96.28L128.795 96.16V88.984ZM137.162 88.984L135.866 88.828V88.084H139.61L141.038 93.244L141.374 94.648L141.662 93.244L143.078 88.084H146.786V88.828L145.478 88.984L146.438 96.148L147.41 96.28V97H143.582V96.28L144.638 96.16L144.11 90.904L143.882 88.708L143.438 90.556L141.698 96.628H140.426L138.65 90.868L138.038 88.708L137.858 90.904L137.402 96.16L138.614 96.28V97H135.278V96.28L136.286 96.16L137.162 88.984ZM150.717 88.036H152.553L155.325 96.16L156.021 96.28V97H152.481V96.28L153.381 96.16L152.913 94.6H149.805L149.337 96.172L150.309 96.28V97H147.249L147.237 96.28L147.957 96.16L150.717 88.036ZM151.545 90.064L151.329 89.128L151.101 90.076L150.033 93.76H152.673L151.545 90.064ZM159.431 97.132C158.999 97.132 158.611 97.096 158.267 97.024C157.923 96.952 157.539 96.856 157.115 96.736C156.835 96.656 156.647 96.612 156.551 96.604L156.659 94.384H157.631L157.895 95.932C157.999 96.044 158.183 96.144 158.447 96.232C158.719 96.32 159.027 96.364 159.371 96.364C159.907 96.364 160.307 96.248 160.571 96.016C160.843 95.776 160.979 95.444 160.979 95.02C160.979 94.74 160.899 94.5 160.739 94.3C160.579 94.092 160.359 93.908 160.079 93.748C159.799 93.58 159.415 93.388 158.927 93.172C158.263 92.868 157.711 92.508 157.271 92.092C156.839 91.668 156.623 91.096 156.623 90.376C156.623 89.928 156.739 89.524 156.971 89.164C157.203 88.796 157.547 88.508 158.003 88.3C158.467 88.084 159.031 87.976 159.695 87.976C160.087 87.976 160.431 88.004 160.727 88.06C161.031 88.116 161.359 88.192 161.711 88.288C161.919 88.344 162.075 88.38 162.179 88.396L162.107 90.496H161.147L160.895 89.02C160.823 88.948 160.679 88.88 160.463 88.816C160.247 88.744 160.007 88.708 159.743 88.708C159.263 88.708 158.899 88.82 158.651 89.044C158.411 89.26 158.291 89.552 158.291 89.92C158.291 90.216 158.379 90.472 158.555 90.688C158.739 90.904 158.959 91.088 159.215 91.24C159.471 91.384 159.875 91.592 160.427 91.864C160.875 92.08 161.259 92.292 161.579 92.5C161.899 92.708 162.175 92.98 162.407 93.316C162.639 93.644 162.755 94.032 162.755 94.48C162.755 94.92 162.643 95.34 162.419 95.74C162.203 96.14 161.843 96.472 161.339 96.736C160.843 97 160.207 97.132 159.431 97.132Z" fill="#009C22"/>
</svg>
