<svg width="198" height="82" viewBox="0 0 198 82" fill="none" xmlns="http://www.w3.org/2000/svg">
<path d="M22.5 0.5H78L55.5 82H0.5L22.5 0.5Z" fill="#009C22"/>
<path d="M82.5 0.5H138L115.5 82H60.5L82.5 0.5Z" fill="#009C22"/>
<path d="M142.5 0.5H198L175.5 82H120.5L142.5 0.5Z" fill="#009C22"/>
<path d="M35.68 77.66C31.28 77.66 27.52 76.72 24.4 74.84C21.32 72.92 18.98 70.24 17.38 66.8C15.78 63.36 14.98 59.32 14.98 54.68C14.98 50.2 15.92 46.24 17.8 42.8C19.68 39.36 22.26 36.7 25.54 34.82C28.82 32.9 32.5 31.94 36.58 31.94C39.66 31.94 43.36 32.42 47.68 33.38L49.66 33.74L49.06 44.54H45.04L43.54 36.92C42.98 36.44 42 36.04 40.6 35.72C39.24 35.36 37.56 35.18 35.56 35.18C33 35.18 30.72 35.92 28.72 37.4C26.72 38.84 25.14 40.98 23.98 43.82C22.86 46.66 22.3 50.06 22.3 54.02C22.3 57.78 22.8 61.2 23.8 64.28C24.8 67.36 26.32 69.82 28.36 71.66C30.4 73.46 32.92 74.36 35.92 74.36C38.04 74.36 39.66 74.18 40.78 73.82C41.94 73.46 42.92 72.94 43.72 72.26L46.24 66.38L50.02 66.86L48.58 75.38C47.74 75.42 46.5 75.7 44.86 76.22C43.42 76.66 42.02 77 40.66 77.24C39.34 77.52 37.68 77.66 35.68 77.66Z" fill="white"/>
<path d="M154.4 77.66C152.32 77.66 150.46 77.48 148.82 77.12C147.18 76.76 145.38 76.28 143.42 75.68C142.22 75.24 141.32 75 140.72 74.96L141.2 64.1H145.04L146.06 71.9C146.74 72.54 147.84 73.12 149.36 73.64C150.92 74.12 152.62 74.36 154.46 74.36C157.5 74.36 159.8 73.68 161.36 72.32C162.96 70.96 163.76 69.08 163.76 66.68C163.76 65.12 163.32 63.78 162.44 62.66C161.6 61.54 160.46 60.58 159.02 59.78C157.62 58.98 155.68 58.04 153.2 56.96C150.96 55.96 149 54.94 147.32 53.9C145.68 52.86 144.24 51.48 143 49.76C141.8 48 141.2 45.9 141.2 43.46C141.2 41.26 141.78 39.3 142.94 37.58C144.14 35.82 145.84 34.44 148.04 33.44C150.28 32.44 152.88 31.94 155.84 31.94C157.68 31.94 159.3 32.08 160.7 32.36C162.14 32.64 163.76 33.02 165.56 33.5C166.36 33.78 167.04 33.96 167.6 34.04L167.24 44.12H163.58L162.38 36.74C161.98 36.34 161.14 35.96 159.86 35.6C158.62 35.24 157.26 35.06 155.78 35.06C153.02 35.06 150.92 35.64 149.48 36.8C148.08 37.96 147.38 39.64 147.38 41.84C147.38 43.44 147.8 44.78 148.64 45.86C149.52 46.94 150.6 47.86 151.88 48.62C153.16 49.38 155.2 50.42 158 51.74C160.6 52.98 162.72 54.1 164.36 55.1C166 56.1 167.4 57.42 168.56 59.06C169.76 60.66 170.36 62.58 170.36 64.82C170.36 66.94 169.76 68.98 168.56 70.94C167.4 72.9 165.6 74.52 163.16 75.8C160.76 77.04 157.84 77.66 154.4 77.66Z" fill="white"/>
<path d="M116.34 55.88L111.48 56.54C111.52 59.26 111.12 61.84 110.28 64.28C109.44 66.72 108.28 68.72 106.8 70.28C108.16 71.52 109.42 72.44 110.58 73.04C111.74 73.64 113.08 73.98 114.6 74.06V76.7C114.24 76.9 113.58 77.06 112.62 77.18C111.7 77.3 110.92 77.36 110.28 77.36C108.88 77.36 107.6 77.1 106.44 76.58C105.32 76.06 104.02 75.18 102.54 73.94C101.02 75.18 99.28 76.1 97.32 76.7C95.36 77.26 93.42 77.54 91.5 77.54C86.62 77.54 82.74 76.5 79.86 74.42C77.02 72.34 75.6 69.46 75.6 65.78C75.6 63.22 76.42 61.02 78.06 59.18C79.74 57.34 81.92 55.86 84.6 54.74C81.12 50.34 79.38 46.22 79.38 42.38C79.38 40.5 79.9 38.76 80.94 37.16C81.98 35.56 83.4 34.28 85.2 33.32C87.04 32.36 89.08 31.88 91.32 31.88C93.64 31.88 95.6 32.28 97.2 33.08C98.84 33.88 100.06 34.92 100.86 36.2C101.66 37.48 102.06 38.8 102.06 40.16C102.06 42.44 101.64 44.38 100.8 45.98C99.96 47.58 98.86 48.94 97.5 50.06C96.14 51.18 94.22 52.54 91.74 54.14C93.14 55.82 94.96 57.92 97.2 60.44C99.48 62.96 101.34 64.96 102.78 66.44L104.28 67.88C105.28 66.6 106 65.12 106.44 63.44C106.88 61.72 107.1 59.98 107.1 58.22C107.1 57.46 107.08 56.9 107.04 56.54L102.18 55.88V52.58H116.34V55.88ZM85.32 41.6C85.32 43.64 85.74 45.48 86.58 47.12C87.46 48.72 88.58 50.3 89.94 51.86C92.42 49.86 94.16 48.06 95.16 46.46C96.16 44.86 96.66 42.86 96.66 40.46C96.66 38.98 96.26 37.64 95.46 36.44C94.66 35.2 93.26 34.58 91.26 34.58C89.58 34.58 88.16 35.24 87 36.56C85.88 37.88 85.32 39.56 85.32 41.6ZM91.98 74.18C93.38 74.18 94.78 73.98 96.18 73.58C97.58 73.14 98.82 72.52 99.9 71.72C98.3 70.28 96.54 68.52 94.62 66.44C92.74 64.32 90.38 61.6 87.54 58.28L86.52 57.08C83.12 59.72 81.42 62.48 81.42 65.36C81.42 67.92 82.34 70.04 84.18 71.72C86.02 73.36 88.62 74.18 91.98 74.18Z" fill="white"/>
</svg>
